<svg width="33" height="32" viewBox="0 0 33 32" fill="none" xmlns="http://www.w3.org/2000/svg">
<path d="M16.7117 17.3333C16.334 17.3333 16.0175 17.2053 15.7624 16.9493C15.5064 16.6942 15.3784 16.3778 15.3784 16V5.33333C15.3784 4.95556 15.5064 4.63867 15.7624 4.38267C16.0175 4.12756 16.334 4 16.7117 4C17.0895 4 17.4064 4.12756 17.6624 4.38267C17.9175 4.63867 18.0451 4.95556 18.0451 5.33333V16C18.0451 16.3778 17.9175 16.6942 17.6624 16.9493C17.4064 17.2053 17.0895 17.3333 16.7117 17.3333ZM16.7117 28C15.0451 28 13.4842 27.6836 12.0291 27.0507C10.5731 26.4169 9.3064 25.5609 8.22907 24.4827C7.15085 23.4053 6.29485 22.1387 5.66107 20.6827C5.02818 19.2276 4.71173 17.6667 4.71173 16C4.71173 14.4667 4.98951 13 5.54507 11.6C6.10062 10.2 6.90062 8.93333 7.94507 7.8C8.18951 7.53333 8.50062 7.4 8.8784 7.4C9.25618 7.4 9.5784 7.53333 9.84507 7.8C10.0895 8.04444 10.2006 8.34978 10.1784 8.716C10.1562 9.08311 10.0228 9.41111 9.7784 9.7C9.00062 10.5667 8.4064 11.5387 7.99573 12.616C7.58418 13.6942 7.3784 14.8222 7.3784 16C7.3784 18.6 8.28418 20.8053 10.0957 22.616C11.9064 24.4276 14.1117 25.3333 16.7117 25.3333C19.3117 25.3333 21.5171 24.4276 23.3277 22.616C25.1393 20.8053 26.0451 18.6 26.0451 16C26.0451 14.8222 25.834 13.6836 25.4117 12.584C24.9895 11.4836 24.3895 10.5 23.6117 9.63333C23.3673 9.36667 23.2397 9.05556 23.2291 8.7C23.2175 8.34444 23.334 8.04444 23.5784 7.8C23.8451 7.53333 24.1673 7.4 24.5451 7.4C24.9228 7.4 25.234 7.53333 25.4784 7.8C26.5228 8.93333 27.3228 10.2 27.8784 11.6C28.434 13 28.7117 14.4667 28.7117 16C28.7117 17.6667 28.3953 19.2276 27.7624 20.6827C27.1286 22.1387 26.2731 23.4053 25.1957 24.4827C24.1175 25.5609 22.8508 26.4169 21.3957 27.0507C19.9397 27.6836 18.3784 28 16.7117 28Z" fill="black"/>
</svg>
