<svg width="25" height="24" viewBox="0 0 25 24" fill="none" xmlns="http://www.w3.org/2000/svg">
<path d="M12.7117 13.3333C12.3339 13.3333 12.0174 13.2053 11.7623 12.9493C11.5063 12.6942 11.3783 12.3778 11.3783 12V1.33333C11.3783 0.955556 11.5063 0.638667 11.7623 0.382667C12.0174 0.127555 12.3339 0 12.7117 0C13.0894 0 13.4063 0.127555 13.6623 0.382667C13.9174 0.638667 14.045 0.955556 14.045 1.33333V12C14.045 12.3778 13.9174 12.6942 13.6623 12.9493C13.4063 13.2053 13.0894 13.3333 12.7117 13.3333ZM12.7117 24C11.045 24 9.48411 23.6836 8.029 23.0507C6.573 22.4169 5.30634 21.5609 4.229 20.4827C3.15078 19.4053 2.29478 18.1387 1.661 16.6827C1.02811 15.2276 0.71167 13.6667 0.71167 12C0.71167 10.4667 0.989448 9 1.545 7.6C2.10056 6.2 2.90056 4.93333 3.945 3.8C4.18945 3.53333 4.50056 3.4 4.87834 3.4C5.25611 3.4 5.57834 3.53333 5.845 3.8C6.08945 4.04444 6.20056 4.34978 6.17834 4.716C6.15611 5.08311 6.02278 5.41111 5.77834 5.7C5.00056 6.56667 4.40634 7.53867 3.99567 8.616C3.58411 9.69422 3.37834 10.8222 3.37834 12C3.37834 14.6 4.28411 16.8053 6.09567 18.616C7.90634 20.4276 10.1117 21.3333 12.7117 21.3333C15.3117 21.3333 17.517 20.4276 19.3277 18.616C21.1392 16.8053 22.045 14.6 22.045 12C22.045 10.8222 21.8339 9.68356 21.4117 8.584C20.9894 7.48356 20.3894 6.5 19.6117 5.63333C19.3672 5.36667 19.2397 5.05556 19.229 4.7C19.2174 4.34444 19.3339 4.04444 19.5783 3.8C19.845 3.53333 20.1672 3.4 20.545 3.4C20.9228 3.4 21.2339 3.53333 21.4783 3.8C22.5228 4.93333 23.3228 6.2 23.8783 7.6C24.4339 9 24.7117 10.4667 24.7117 12C24.7117 13.6667 24.3952 15.2276 23.7623 16.6827C23.1286 18.1387 22.273 19.4053 21.1957 20.4827C20.1174 21.5609 18.8508 22.4169 17.3957 23.0507C15.9397 23.6836 14.3783 24 12.7117 24Z" fill="#FAFAFA"/>
</svg>
