<svg width="25" height="24" viewBox="0 0 25 24" fill="none" xmlns="http://www.w3.org/2000/svg">
<path d="M12.7117 13.3333C12.334 13.3333 12.0175 13.2053 11.7624 12.9493C11.5064 12.6942 11.3784 12.3778 11.3784 12V1.33333C11.3784 0.955556 11.5064 0.638667 11.7624 0.382667C12.0175 0.127555 12.334 0 12.7117 0C13.0895 0 13.4064 0.127555 13.6624 0.382667C13.9175 0.638667 14.0451 0.955556 14.0451 1.33333V12C14.0451 12.3778 13.9175 12.6942 13.6624 12.9493C13.4064 13.2053 13.0895 13.3333 12.7117 13.3333ZM12.7117 24C11.0451 24 9.48418 23.6836 8.02907 23.0507C6.57307 22.4169 5.3064 21.5609 4.22907 20.4827C3.15085 19.4053 2.29485 18.1387 1.66107 16.6827C1.02818 15.2276 0.711735 13.6667 0.711735 12C0.711735 10.4667 0.989513 9 1.54507 7.6C2.10062 6.2 2.90062 4.93333 3.94507 3.8C4.18951 3.53333 4.50062 3.4 4.8784 3.4C5.25618 3.4 5.5784 3.53333 5.84507 3.8C6.08951 4.04444 6.20062 4.34978 6.1784 4.716C6.15618 5.08311 6.02285 5.41111 5.7784 5.7C5.00062 6.56667 4.4064 7.53867 3.99573 8.616C3.58418 9.69422 3.3784 10.8222 3.3784 12C3.3784 14.6 4.28418 16.8053 6.09574 18.616C7.9064 20.4276 10.1117 21.3333 12.7117 21.3333C15.3117 21.3333 17.5171 20.4276 19.3277 18.616C21.1393 16.8053 22.0451 14.6 22.0451 12C22.0451 10.8222 21.834 9.68356 21.4117 8.584C20.9895 7.48356 20.3895 6.5 19.6117 5.63333C19.3673 5.36667 19.2397 5.05556 19.2291 4.7C19.2175 4.34444 19.334 4.04444 19.5784 3.8C19.8451 3.53333 20.1673 3.4 20.5451 3.4C20.9228 3.4 21.234 3.53333 21.4784 3.8C22.5228 4.93333 23.3228 6.2 23.8784 7.6C24.434 9 24.7117 10.4667 24.7117 12C24.7117 13.6667 24.3953 15.2276 23.7624 16.6827C23.1286 18.1387 22.2731 19.4053 21.1957 20.4827C20.1175 21.5609 18.8508 22.4169 17.3957 23.0507C15.9397 23.6836 14.3784 24 12.7117 24Z" fill="black"/>
</svg>
